<svg width="208" height="51" viewBox="0 0 208 51" xmlns="http://www.w3.org/2000/svg" xmlns:xlink="http://www.w3.org/1999/xlink"><title>discord</title><defs><rect id="a" width="208" height="51" rx="3"/><path id="d" d="M156 3h50v45h-50z"/><filter x="-3%" y="-1.1%" width="104%" height="102.2%" filterUnits="objectBoundingBox" id="c"><feOffset dx="-1" in="SourceAlpha" result="shadowOffsetOuter1"/><feColorMatrix values="0 0 0 0 1 0 0 0 0 1 0 0 0 0 1 0 0 0 0.149428216 0" in="shadowOffsetOuter1"/></filter></defs><g fill="none" fill-rule="evenodd"><mask id="b" fill="#fff"><use xlink:href="#a"/></mask><use fill="#7289DA" xlink:href="#a"/><g mask="url(#b)"><use fill="#000" filter="url(#c)" xlink:href="#d"/><use fill="#7289DA" xlink:href="#d"/></g><path d="M19 31.316c0 .774 1.8.828 2.232.828 2.682 0 3.816-1.494 3.816-3.78V19.94c0-.378-.324-.594-1.08-.594h-.63c-.756 0-1.08.216-1.08.594v7.974c0 1.314-.432 1.872-1.512 1.872-.576 0-.828-.144-1.008-.144-.558.054-.738 1.35-.738 1.674zm8.046-5.616c0-4.158 2.07-6.444 5.778-6.444 3.708 0 5.76 2.286 5.76 6.444 0 4.158-2.052 6.444-5.76 6.444-3.708 0-5.778-2.286-5.778-6.444zm5.778 4.086c1.926 0 2.916-1.44 2.916-4.086 0-2.646-.99-4.068-2.916-4.068S29.89 23.054 29.89 25.7s1.008 4.086 2.934 4.086zm7.704 1.674c0 .378.324.594 1.08.594h.63c.756 0 1.08-.216 1.08-.594V19.94c0-.378-.324-.594-1.08-.594h-.63c-.756 0-1.08.216-1.08.594v11.52zm5.184 0c0 .378.324.576 1.08.576h.522c.756 0 1.08-.198 1.08-.576v-7.29l4.824 7.38c.27.414.666.486 1.188.486h.684c.756 0 1.08-.198 1.08-.576V19.94c0-.378-.324-.576-1.08-.576h-.522c-.756 0-1.08.198-1.08.576v7.2l-4.734-7.29c-.27-.414-.666-.486-1.188-.486h-.774c-.756 0-1.08.198-1.08.576v11.52zm17.262-.18V20.12c0-.504.216-.72.72-.72h4.032c3.708 0 5.76 2.232 5.76 6.3s-2.052 6.3-5.76 6.3h-4.032c-.504 0-.72-.216-.72-.72zm2.79-1.638h1.962c1.926 0 2.916-1.386 2.916-3.942s-.99-3.942-2.916-3.942h-1.962v7.884zm9.612 1.818c0 .378.324.594 1.08.594h.63c.756 0 1.08-.216 1.08-.594V19.94c0-.378-.324-.594-1.08-.594h-.63c-.756 0-1.08.216-1.08.594v11.52zm4.338-.9c0 .612 1.494 1.584 4.23 1.584 1.962 0 4.068-1.008 4.068-3.996 0-4.23-5.202-3.402-5.202-5.454 0-.414.27-1.062 1.674-1.062 1.206 0 1.764.45 1.998.45.432 0 .99-1.08.99-1.566 0-.594-1.332-1.26-3.24-1.26-2.106 0-4.266 1.044-4.266 3.69 0 4.23 5.202 3.402 5.202 5.526 0 1.08-.918 1.314-1.692 1.314-1.44 0-2.322-.828-2.646-.828-.378 0-1.116 1.044-1.116 1.602zm9.414-4.896c0 4.446 1.89 6.48 5.922 6.48 1.44 0 4.014-.432 4.014-1.512 0-.306-.486-1.566-1.062-1.566-.27 0-1.242.72-2.952.72-2.07 0-3.078-1.404-3.078-4.104s.99-4.05 3.114-4.05c1.71 0 2.43.576 2.646.576.45 0 1.17-1.188 1.17-1.692 0-.756-2.178-1.26-3.762-1.26-3.996 0-6.012 2.124-6.012 6.408zm11.142.036c0-4.158 2.07-6.444 5.778-6.444 3.708 0 5.76 2.286 5.76 6.444 0 4.158-2.052 6.444-5.76 6.444-3.708 0-5.778-2.286-5.778-6.444zm5.778 4.086c1.926 0 2.916-1.44 2.916-4.086 0-2.646-.99-4.068-2.916-4.068s-2.934 1.422-2.934 4.068 1.008 4.086 2.934 4.086zm7.812 1.674V20.12c0-.504.216-.72.72-.72h3.51c3.114 0 4.482 1.224 4.482 3.384 0 1.386-.864 2.394-2.106 2.862v.072c.45.18.99.882 1.296 1.656l1.584 3.96c.054.144.09.252.09.342 0 .216-.342.36-1.08.36h-.738c-.522 0-.936-.09-1.044-.378l-1.422-3.51c-.36-.72-.648-1.08-1.818-1.08h-.702v4.392c0 .378-.324.576-1.08.576h-.612c-.756 0-1.08-.198-1.08-.576zm2.772-6.786h1.71c.738 0 1.386-.684 1.386-1.548 0-.828-.576-1.368-1.512-1.368h-1.584v2.916zm8.208 6.606V20.12c0-.504.216-.72.72-.72h4.032c3.708 0 5.76 2.232 5.76 6.3s-2.052 6.3-5.76 6.3h-4.032c-.504 0-.72-.216-.72-.72zm2.79-1.638h1.962c1.926 0 2.916-1.386 2.916-3.942s-.99-3.942-2.916-3.942h-1.962v7.884z" fill="#FFF"/><g fill-rule="nonzero" fill="#FFF"><path d="M178.255 24c-.7 0-1.255.45-1.255 1s.566 1 1.255 1c.7 0 1.255-.45 1.255-1 .012-.55-.554-1-1.255-1zm4.49 0c-.7 0-1.255.45-1.255 1s.566 1 1.255 1c.7 0 1.255-.45 1.255-1s-.554-1-1.255-1z"/><path d="M188.54 14h-16.08c-1.356 0-2.46 1.104-2.46 2.472v16.224c0 1.368 1.104 2.472 2.46 2.472h13.608l-.636-2.22 1.536 1.428 1.452 1.344L191 38V16.472c0-1.368-1.104-2.472-2.46-2.472zm-4.632 15.672s-.432-.516-.792-.972c1.572-.444 2.172-1.428 2.172-1.428-.492.324-.96.552-1.38.708-.6.252-1.176.42-1.74.516-1.152.216-2.208.156-3.108-.012-.684-.132-1.272-.324-1.764-.516-.276-.108-.576-.24-.876-.408-.036-.024-.072-.036-.108-.06-.024-.012-.036-.024-.048-.036-.216-.12-.336-.204-.336-.204s.576.96 2.1 1.416c-.36.456-.804.996-.804.996-2.652-.084-3.66-1.824-3.66-1.824 0-3.864 1.728-6.996 1.728-6.996 1.728-1.296 3.372-1.26 3.372-1.26l.12.144c-2.16.624-3.156 1.572-3.156 1.572s.264-.144.708-.348c1.284-.564 2.304-.72 2.724-.756.072-.012.132-.024.204-.024.732-.096 1.56-.12 2.424-.024 1.14.132 2.364.468 3.612 1.152 0 0-.948-.9-2.988-1.524l.168-.192s1.644-.036 3.372 1.26c0 0 1.728 3.132 1.728 6.996 0 0-1.02 1.74-3.672 1.824z"/></g></g></svg>