<?xml version="1.0" encoding="UTF-8"?>
<svg width="221px" height="51px" viewBox="0 0 221 51" version="1.1" xmlns="http://www.w3.org/2000/svg" xmlns:xlink="http://www.w3.org/1999/xlink">
    <!-- Generator: Sketch 47.1 (45422) - http://www.bohemiancoding.com/sketch -->
    <title>docs-transparent</title>
    <desc>Created with Sketch.</desc>
    <defs>
        <rect id="path-1" x="0" y="0" width="221" height="51" rx="3"></rect>
        <rect id="path-3" x="169" y="3" width="50" height="45"></rect>
        <filter x="-3.0%" y="-1.1%" width="104.0%" height="102.2%" filterUnits="objectBoundingBox" id="filter-4">
            <feOffset dx="-1" dy="0" in="SourceAlpha" result="shadowOffsetOuter1"></feOffset>
            <feComposite in="shadowOffsetOuter1" in2="SourceAlpha" operator="out" result="shadowOffsetOuter1"></feComposite>
            <feColorMatrix values="0 0 0 0 0   0 0 0 0 0   0 0 0 0 0  0 0 0 0.0948539402 0" type="matrix" in="shadowOffsetOuter1"></feColorMatrix>
        </filter>
    </defs>
    <g id="Buttons" stroke="none" stroke-width="1" fill="none" fill-rule="evenodd">
        <g id="docs-transparent">
            <g id="Button-Copy">
                <g id="Group">
                    <g id="Rectangle-5">
                        <mask id="mask-2" fill="white">
                            <use xlink:href="#path-1"></use>
                        </mask>
                        <rect stroke="#D8DFE3" stroke-width="2" x="1" y="1" width="219" height="49" rx="3"></rect>
                        <g mask="url(#mask-2)">
                            <use fill="black" fill-opacity="1" filter="url(#filter-4)" xlink:href="#path-3"></use>
                            <use fill-opacity="0" fill="#FFFFFF" fill-rule="evenodd" xlink:href="#path-3"></use>
                        </g>
                    </g>
                </g>
            </g>
            <path d="M30.05,31.658 C30.14,31.946 30.536,32.036 31.058,32.036 L31.994,32.036 C32.516,32.036 32.912,31.946 33.002,31.658 L36.89,20.084 C36.926,19.958 36.944,19.85 36.944,19.76 C36.944,19.508 36.62,19.364 35.864,19.364 L35.306,19.364 C34.784,19.364 34.37,19.508 34.244,19.886 L31.544,28.31 L31.472,28.31 L28.844,19.886 C28.718,19.49 28.304,19.364 27.782,19.364 L27.188,19.364 C26.432,19.364 26.09,19.508 26.09,19.76 C26.09,19.85 26.126,19.958 26.162,20.084 L30.05,31.658 Z M38.24,31.46 C38.24,31.838 38.564,32.054 39.32,32.054 L39.95,32.054 C40.706,32.054 41.03,31.838 41.03,31.46 L41.03,19.94 C41.03,19.562 40.706,19.346 39.95,19.346 L39.32,19.346 C38.564,19.346 38.24,19.562 38.24,19.94 L38.24,31.46 Z M43.424,31.28 C43.424,31.784 43.64,32 44.144,32 L50.75,32 C51.128,32 51.29,31.73 51.29,31.1 L51.29,30.542 C51.29,29.912 51.128,29.642 50.75,29.642 L46.196,29.642 L46.196,26.726 L50.246,26.726 C50.624,26.726 50.786,26.456 50.786,25.826 L50.786,25.268 C50.786,24.638 50.624,24.368 50.246,24.368 L46.196,24.368 L46.196,21.758 L50.732,21.758 C51.11,21.758 51.272,21.488 51.272,20.858 L51.272,20.3 C51.272,19.67 51.11,19.4 50.732,19.4 L44.144,19.4 C43.64,19.4 43.424,19.616 43.424,20.12 L43.424,31.28 Z M54.818,31.658 C54.872,31.91 55.232,32.036 55.808,32.036 L57.104,32.036 C57.608,32.036 58.022,31.91 58.094,31.658 L59.93,24.206 L61.694,31.658 C61.748,31.91 62.18,32.036 62.684,32.036 L63.998,32.036 C64.502,32.036 64.916,31.91 64.988,31.658 L67.922,20.102 C67.94,19.994 67.958,19.904 67.958,19.832 C67.958,19.544 67.616,19.364 66.842,19.364 L66.644,19.364 C65.942,19.364 65.528,19.544 65.438,19.922 L64.034,25.718 C63.872,26.402 63.656,27.446 63.422,28.436 C63.206,27.428 62.972,26.402 62.81,25.718 L61.388,19.742 C61.316,19.454 60.974,19.364 60.398,19.364 L59.714,19.364 C59.138,19.364 58.796,19.454 58.724,19.742 L57.248,25.718 C57.086,26.33 56.798,27.302 56.636,28.31 C56.42,27.302 56.222,26.33 56.078,25.718 L54.728,19.922 C54.638,19.544 54.224,19.364 53.522,19.364 L53.054,19.364 C52.28,19.364 51.938,19.544 51.938,19.832 C51.938,19.904 51.938,19.994 51.974,20.102 L54.818,31.658 Z M73.34,31.46 C73.34,31.838 73.664,32.054 74.42,32.054 L75.05,32.054 C75.806,32.054 76.13,31.838 76.13,31.46 L76.13,19.94 C76.13,19.562 75.806,19.346 75.05,19.346 L74.42,19.346 C73.664,19.346 73.34,19.562 73.34,19.94 L73.34,31.46 Z M78.524,31.46 C78.524,31.838 78.848,32.036 79.604,32.036 L80.126,32.036 C80.882,32.036 81.206,31.838 81.206,31.46 L81.206,24.17 L86.03,31.55 C86.3,31.964 86.696,32.036 87.218,32.036 L87.902,32.036 C88.658,32.036 88.982,31.838 88.982,31.46 L88.982,19.94 C88.982,19.562 88.658,19.364 87.902,19.364 L87.38,19.364 C86.624,19.364 86.3,19.562 86.3,19.94 L86.3,27.14 L81.566,19.85 C81.296,19.436 80.9,19.364 80.378,19.364 L79.604,19.364 C78.848,19.364 78.524,19.562 78.524,19.94 L78.524,31.46 Z M95.786,31.28 L95.786,20.12 C95.786,19.616 96.002,19.4 96.506,19.4 L100.538,19.4 C104.246,19.4 106.298,21.632 106.298,25.7 C106.298,29.768 104.246,32 100.538,32 L96.506,32 C96.002,32 95.786,31.784 95.786,31.28 Z M98.576,29.642 L100.538,29.642 C102.464,29.642 103.454,28.256 103.454,25.7 C103.454,23.144 102.464,21.758 100.538,21.758 L98.576,21.758 L98.576,29.642 Z M107.864,25.7 C107.864,21.542 109.934,19.256 113.642,19.256 C117.35,19.256 119.402,21.542 119.402,25.7 C119.402,29.858 117.35,32.144 113.642,32.144 C109.934,32.144 107.864,29.858 107.864,25.7 Z M113.642,29.786 C115.568,29.786 116.558,28.346 116.558,25.7 C116.558,23.054 115.568,21.632 113.642,21.632 C111.716,21.632 110.708,23.054 110.708,25.7 C110.708,28.346 111.716,29.786 113.642,29.786 Z M121.022,25.664 C121.022,30.11 122.912,32.144 126.944,32.144 C128.384,32.144 130.958,31.712 130.958,30.632 C130.958,30.326 130.472,29.066 129.896,29.066 C129.626,29.066 128.654,29.786 126.944,29.786 C124.874,29.786 123.866,28.382 123.866,25.682 C123.866,22.982 124.856,21.632 126.98,21.632 C128.69,21.632 129.41,22.208 129.626,22.208 C130.076,22.208 130.796,21.02 130.796,20.516 C130.796,19.76 128.618,19.256 127.034,19.256 C123.038,19.256 121.022,21.38 121.022,25.664 Z M131.75,30.56 C131.75,31.172 133.244,32.144 135.98,32.144 C137.942,32.144 140.048,31.136 140.048,28.148 C140.048,23.918 134.846,24.746 134.846,22.694 C134.846,22.28 135.116,21.632 136.52,21.632 C137.726,21.632 138.284,22.082 138.518,22.082 C138.95,22.082 139.508,21.002 139.508,20.516 C139.508,19.922 138.176,19.256 136.268,19.256 C134.162,19.256 132.002,20.3 132.002,22.946 C132.002,27.176 137.204,26.348 137.204,28.472 C137.204,29.552 136.286,29.786 135.512,29.786 C134.072,29.786 133.19,28.958 132.866,28.958 C132.488,28.958 131.75,30.002 131.75,30.56 Z" id="VIEW-IN-DOCS" fill="#65737D"></path>
            <path d="M201.419922,25.0283203 L196.014648,19.6318359 C195.926757,19.5439449 195.82129,19.5 195.698242,19.5 C195.575195,19.5 195.469727,19.5439449 195.381836,19.6318359 C195.293945,19.719727 195.25,19.8251947 195.25,19.9482422 C195.25,20.0712897 195.293945,20.1767574 195.381836,20.2646484 L200.013672,24.8964844 L185.353516,24.8964844 C185.224609,24.8964844 185.116211,24.9404292 185.02832,25.0283203 C184.940429,25.1162114 184.896484,25.2246087 184.896484,25.3535156 C184.896484,25.4765631 184.940429,25.5820308 185.02832,25.6699219 C185.116211,25.7578129 185.224609,25.8017578 185.353516,25.8017578 L200.013672,25.8017578 L195.381836,30.4335938 C195.293945,30.5214848 195.25,30.6269525 195.25,30.75 C195.25,30.8730475 195.293945,30.9785152 195.381836,31.0664062 C195.422852,31.1132815 195.471191,31.1469726 195.526855,31.1674805 C195.58252,31.1879884 195.639648,31.1982422 195.698242,31.1982422 C195.756836,31.1982422 195.813965,31.1879884 195.869629,31.1674805 C195.925293,31.1469726 195.973633,31.1132815 196.014648,31.0664062 L201.419922,25.6699219 C201.507813,25.5820308 201.551758,25.4750983 201.551758,25.3491211 C201.551758,25.2231439 201.507813,25.1162114 201.419922,25.0283203 Z" id="arrow-right" fill-opacity="0.357195426" fill="#000000"></path>
        </g>
    </g>
</svg>