<svg width="208" height="51" viewBox="0 0 208 51" xmlns="http://www.w3.org/2000/svg" xmlns:xlink="http://www.w3.org/1999/xlink"><title>get-started-white</title><defs><rect id="a" width="208" height="51" rx="3"/><path id="d" d="M156 3h50v45h-50z"/><filter x="-3%" y="-1.1%" width="104%" height="102.2%" filterUnits="objectBoundingBox" id="c"><feOffset dx="-1" in="SourceAlpha" result="shadowOffsetOuter1"/><feComposite in="shadowOffsetOuter1" in2="SourceAlpha" operator="out" result="shadowOffsetOuter1"/><feColorMatrix values="0 0 0 0 0 0 0 0 0 0 0 0 0 0 0 0 0 0 0.0851732337 0" in="shadowOffsetOuter1"/></filter></defs><g fill="none" fill-rule="evenodd"><mask id="b" fill="#fff"><use xlink:href="#a"/></mask><rect stroke="#D8DFE3" stroke-width="2" x="1" y="1" width="206" height="49" rx="3"/><g mask="url(#b)"><use fill="#000" filter="url(#c)" xlink:href="#d"/><use fill-opacity="0" fill="#027CD2" xlink:href="#d"/></g><path d="M189.42 25.028l-5.405-5.396c-.088-.088-.194-.132-.317-.132s-.228.044-.316.132c-.088.088-.132.193-.132.316s.044.23.132.317l4.632 4.63h-14.66c-.13 0-.238.045-.326.133-.088.088-.132.197-.132.326 0 .123.044.228.132.316.088.088.197.132.326.132h14.66l-4.632 4.632c-.088.087-.132.193-.132.316s.044.23.132.316c.04.047.09.08.145.1.056.022.113.032.17.032.06 0 .117-.01.173-.03.055-.02.104-.055.145-.102l5.405-5.396c.088-.088.132-.195.132-.32 0-.127-.044-.234-.132-.322z" fill-opacity=".357" fill="#000"/><path d="M23.81 25.664c0 4.446 1.89 6.48 5.922 6.48 1.278 0 4.194-.18 4.194-1.422v-5.004c0-.504-.216-.72-.72-.72h-3.654c-.378 0-.54.27-.54.9v.576c0 .63.162.9.54.9h1.584v2.286c-.486.09-.9.126-1.404.126-2.07 0-3.078-1.404-3.078-4.104s.99-4.05 3.114-4.05c1.71 0 2.52.576 2.736.576.45 0 1.17-1.188 1.17-1.692 0-.756-2.268-1.26-3.852-1.26-3.996 0-6.012 2.124-6.012 6.408zm12.528 5.616c0 .504.216.72.72.72h6.606c.378 0 .54-.27.54-.9v-.558c0-.63-.162-.9-.54-.9H39.11v-2.916h4.05c.378 0 .54-.27.54-.9v-.558c0-.63-.162-.9-.54-.9h-4.05v-2.61h4.536c.378 0 .54-.27.54-.9V20.3c0-.63-.162-.9-.54-.9h-6.588c-.504 0-.72.216-.72.72v11.16zm12.132.18c0 .378.324.576 1.08.576h.63c.756 0 1.08-.198 1.08-.576v-9.702h2.862c.378 0 .54-.27.54-.9V20.3c0-.63-.162-.9-.54-.9h-8.514c-.378 0-.54.27-.54.9v.558c0 .63.162.9.54.9h2.862v9.702zm11.052-.9c0 .612 1.494 1.584 4.23 1.584 1.962 0 4.068-1.008 4.068-3.996 0-4.23-5.202-3.402-5.202-5.454 0-.414.27-1.062 1.674-1.062 1.206 0 1.764.45 1.998.45.432 0 .99-1.08.99-1.566 0-.594-1.332-1.26-3.24-1.26-2.106 0-4.266 1.044-4.266 3.69 0 4.23 5.202 3.402 5.202 5.526 0 1.08-.918 1.314-1.692 1.314-1.44 0-2.322-.828-2.646-.828-.378 0-1.116 1.044-1.116 1.602zm12.15.9c0 .378.324.576 1.08.576h.63c.756 0 1.08-.198 1.08-.576v-9.702h2.862c.378 0 .54-.27.54-.9V20.3c0-.63-.162-.9-.54-.9H68.81c-.378 0-.54.27-.54.9v.558c0 .63.162.9.54.9h2.862v9.702zm6.336.18c0-.09.036-.198.072-.324l3.96-11.574c.108-.288.504-.378 1.026-.378h.936c.522 0 .918.09 1.026.378l3.96 11.574c.036.126.054.234.054.324 0 .252-.27.396-.9.396h-.792c-.522 0-.918-.09-1.008-.378l-.72-2.196h-4.248l-.72 2.196c-.09.27-.396.378-.828.378h-.72c-.756 0-1.098-.144-1.098-.396zm4.14-4.554h2.7l-1.026-3.204c-.09-.234-.27-1.152-.27-1.152h-.072s-.162.846-.27 1.152l-1.062 3.204zm8.136 4.374V20.12c0-.504.216-.72.72-.72h3.51c3.114 0 4.482 1.224 4.482 3.384 0 1.386-.864 2.394-2.106 2.862v.072c.45.18.99.882 1.296 1.656l1.584 3.96c.054.144.09.252.09.342 0 .216-.342.36-1.08.36h-.738c-.522 0-.936-.09-1.044-.378l-1.422-3.51c-.36-.72-.648-1.08-1.818-1.08h-.702v4.392c0 .378-.324.576-1.08.576h-.612c-.756 0-1.08-.198-1.08-.576zm2.772-6.786h1.71c.738 0 1.386-.684 1.386-1.548 0-.828-.576-1.368-1.512-1.368h-1.584v2.916zm10.512 6.786c0 .378.324.576 1.08.576h.63c.756 0 1.08-.198 1.08-.576v-9.702h2.862c.378 0 .54-.27.54-.9V20.3c0-.63-.162-.9-.54-.9h-8.514c-.378 0-.54.27-.54.9v.558c0 .63.162.9.54.9h2.862v9.702zm7.578-.18c0 .504.216.72.72.72h6.606c.378 0 .54-.27.54-.9v-.558c0-.63-.162-.9-.54-.9h-4.554v-2.916h4.05c.378 0 .54-.27.54-.9v-.558c0-.63-.162-.9-.54-.9h-4.05v-2.61h4.536c.378 0 .54-.27.54-.9V20.3c0-.63-.162-.9-.54-.9h-6.588c-.504 0-.72.216-.72.72v11.16zm9.828 0V20.12c0-.504.216-.72.72-.72h4.032c3.708 0 5.76 2.232 5.76 6.3s-2.052 6.3-5.76 6.3h-4.032c-.504 0-.72-.216-.72-.72zm2.79-1.638h1.962c1.926 0 2.916-1.386 2.916-3.942s-.99-3.942-2.916-3.942h-1.962v7.884z" fill="#65737D"/></g></svg>