<svg width="231" height="51" viewBox="0 0 231 51" xmlns="http://www.w3.org/2000/svg" xmlns:xlink="http://www.w3.org/1999/xlink"><title>github-transparent</title><defs><rect id="a" width="231" height="51" rx="3"/><path id="d" d="M181 3h50v45h-50z"/><filter x="-3%" y="-1.1%" width="104%" height="102.2%" filterUnits="objectBoundingBox" id="c"><feOffset dx="-1" in="SourceAlpha" result="shadowOffsetOuter1"/><feComposite in="shadowOffsetOuter1" in2="SourceAlpha" operator="out" result="shadowOffsetOuter1"/><feColorMatrix values="0 0 0 0 0 0 0 0 0 0 0 0 0 0 0 0 0 0 0.0851732337 0" in="shadowOffsetOuter1"/></filter></defs><g fill="none" fill-rule="evenodd"><mask id="b" fill="#fff"><use xlink:href="#a"/></mask><rect stroke="#D8DFE3" stroke-width="2" x="1" y="1" width="229" height="49" rx="3"/><g mask="url(#b)"><use fill="#000" filter="url(#c)" xlink:href="#d"/><use fill-opacity="0" fill="#027CD2" xlink:href="#d"/></g><path d="M206 16c-4.97 0-9 4.13-9 9.228 0 4.077 2.58 7.536 6.155 8.756.45.086.615-.2.615-.444 0-.22-.01-.947-.012-1.718-2.504.558-3.033-1.09-3.033-1.09-.41-1.065-1-1.35-1-1.35-.816-.572.063-.56.063-.56.903.065 1.38.95 1.38.95.802 1.412 2.105 1.004 2.618.768.08-.596.314-1.003.572-1.234-2-.233-4.1-1.024-4.1-4.56 0-1.008.35-1.83.927-2.477-.094-.234-.402-1.172.087-2.443 0 0 .755-.248 2.475.946.718-.205 1.488-.307 2.253-.31.765.003 1.535.105 2.255.31 1.718-1.194 2.472-.946 2.472-.946.49 1.27.182 2.21.088 2.442.578.645.927 1.468.927 2.476 0 3.544-2.106 4.325-4.11 4.553.323.285.61.847.61 1.708 0 1.234-.01 2.228-.01 2.532 0 .246.162.534.618.443 3.574-1.222 6.15-4.68 6.15-8.755 0-5.097-4.03-9.228-9-9.228M24.05 31.658c.09.288.486.378 1.008.378h.936c.522 0 .918-.09 1.008-.378l3.888-11.574c.036-.126.054-.234.054-.324 0-.252-.324-.396-1.08-.396h-.558c-.522 0-.936.144-1.062.522l-2.7 8.424h-.072l-2.628-8.424c-.126-.396-.54-.522-1.062-.522h-.594c-.756 0-1.098.144-1.098.396 0 .09.036.198.072.324l3.888 11.574zm8.19-.198c0 .378.324.594 1.08.594h.63c.756 0 1.08-.216 1.08-.594V19.94c0-.378-.324-.594-1.08-.594h-.63c-.756 0-1.08.216-1.08.594v11.52zm5.184-.18c0 .504.216.72.72.72h6.606c.378 0 .54-.27.54-.9v-.558c0-.63-.162-.9-.54-.9h-4.554v-2.916h4.05c.378 0 .54-.27.54-.9v-.558c0-.63-.162-.9-.54-.9h-4.05v-2.61h4.536c.378 0 .54-.27.54-.9V20.3c0-.63-.162-.9-.54-.9h-6.588c-.504 0-.72.216-.72.72v11.16zm11.394.378c.054.252.414.378.99.378h1.296c.504 0 .918-.126.99-.378l1.836-7.452 1.764 7.452c.054.252.486.378.99.378h1.314c.504 0 .918-.126.99-.378l2.934-11.556c.018-.108.036-.198.036-.27 0-.288-.342-.468-1.116-.468h-.198c-.702 0-1.116.18-1.206.558l-1.404 5.796c-.162.684-.378 1.728-.612 2.718-.216-1.008-.45-2.034-.612-2.718l-1.422-5.976c-.072-.288-.414-.378-.99-.378h-.684c-.576 0-.918.09-.99.378l-1.476 5.976c-.162.612-.45 1.584-.612 2.592-.216-1.008-.414-1.98-.558-2.592l-1.35-5.796c-.09-.378-.504-.558-1.206-.558h-.468c-.774 0-1.116.18-1.116.468 0 .072 0 .162.036.27l2.844 11.556zM67.016 25.7c0-4.158 2.07-6.444 5.778-6.444 3.708 0 5.76 2.286 5.76 6.444 0 4.158-2.052 6.444-5.76 6.444-3.708 0-5.778-2.286-5.778-6.444zm5.778 4.086c1.926 0 2.916-1.44 2.916-4.086 0-2.646-.99-4.068-2.916-4.068S69.86 23.054 69.86 25.7s1.008 4.086 2.934 4.086zm7.812 1.674c0 .378.324.576 1.08.576h.522c.756 0 1.08-.198 1.08-.576v-7.29l4.824 7.38c.27.414.666.486 1.188.486h.684c.756 0 1.08-.198 1.08-.576V19.94c0-.378-.324-.576-1.08-.576h-.522c-.756 0-1.08.198-1.08.576v7.2l-4.734-7.29c-.27-.414-.666-.486-1.188-.486h-.774c-.756 0-1.08.198-1.08.576v11.52zm16.83-5.796c0 4.446 1.89 6.48 5.922 6.48 1.278 0 4.194-.18 4.194-1.422v-5.004c0-.504-.216-.72-.72-.72h-3.654c-.378 0-.54.27-.54.9v.576c0 .63.162.9.54.9h1.584v2.286c-.486.09-.9.126-1.404.126-2.07 0-3.078-1.404-3.078-4.104s.99-4.05 3.114-4.05c1.71 0 2.52.576 2.736.576.45 0 1.17-1.188 1.17-1.692 0-.756-2.268-1.26-3.852-1.26-3.996 0-6.012 2.124-6.012 6.408zm12.42 5.796c0 .378.324.594 1.08.594h.63c.756 0 1.08-.216 1.08-.594V19.94c0-.378-.324-.594-1.08-.594h-.63c-.756 0-1.08.216-1.08.594v11.52zm7.488 0c0 .378.324.576 1.08.576h.63c.756 0 1.08-.198 1.08-.576v-9.702h2.862c.378 0 .54-.27.54-.9V20.3c0-.63-.162-.9-.54-.9h-8.514c-.378 0-.54.27-.54.9v.558c0 .63.162.9.54.9h2.862v9.702zm7.848 0c0 .378.324.576 1.08.576h.63c.756 0 1.08-.198 1.08-.576v-4.698h4.86v4.698c0 .378.324.576 1.08.576h.63c.756 0 1.08-.198 1.08-.576V19.94c0-.378-.324-.576-1.08-.576h-.63c-.756 0-1.08.198-1.08.576v4.446h-4.86V19.94c0-.378-.324-.576-1.08-.576h-.63c-.756 0-1.08.198-1.08.576v11.52zm12.87-3.672c0 2.772 1.926 4.356 5.22 4.356 3.294 0 5.22-1.584 5.22-4.356V19.94c0-.378-.324-.576-1.08-.576h-.594c-.756 0-1.08.198-1.08.576v7.668c0 1.26-1.008 2.178-2.466 2.178-1.458 0-2.448-.918-2.448-2.178V19.94c0-.378-.324-.576-1.08-.576h-.612c-.756 0-1.08.198-1.08.576v7.848zm12.87 3.492V20.12c0-.504.216-.72.72-.72h3.564c3.042 0 4.248 1.296 4.248 3.186 0 1.224-.864 2.286-1.944 2.736l.018.072c1.44.288 2.43 1.566 2.43 2.952 0 2.322-1.458 3.654-4.5 3.654h-3.816c-.504 0-.72-.216-.72-.72zm2.772-6.858h1.242c1.08 0 1.674-.594 1.674-1.35 0-.882-.54-1.332-1.638-1.332h-1.278v2.682zm0 5.22h1.764c1.044 0 1.656-.522 1.656-1.458 0-.936-.702-1.404-1.944-1.404h-1.476v2.862z" fill="#65737D"/></g></svg>