<svg width="208" height="51" viewBox="0 0 208 51" xmlns="http://www.w3.org/2000/svg" xmlns:xlink="http://www.w3.org/1999/xlink"><title>learn-more-blue</title><defs><rect id="a" width="208" height="51" rx="3"/><path id="d" d="M156 3h50v45h-50z"/><filter x="-3%" y="-1.1%" width="104%" height="102.2%" filterUnits="objectBoundingBox" id="c"><feOffset dx="-1" in="SourceAlpha" result="shadowOffsetOuter1"/><feColorMatrix values="0 0 0 0 1 0 0 0 0 1 0 0 0 0 1 0 0 0 0.149428216 0" in="shadowOffsetOuter1"/></filter></defs><g fill="none" fill-rule="evenodd"><mask id="b" fill="#fff"><use xlink:href="#a"/></mask><use fill="#027CD2" xlink:href="#a"/><g mask="url(#b)"><use fill="#000" filter="url(#c)" xlink:href="#d"/><use fill="#027CD2" xlink:href="#d"/></g><path d="M189.42 25.028l-5.405-5.396c-.088-.088-.194-.132-.317-.132s-.228.044-.316.132c-.088.088-.132.193-.132.316s.044.23.132.317l4.632 4.63h-14.66c-.13 0-.238.045-.326.133-.088.088-.132.197-.132.326 0 .123.044.228.132.316.088.088.197.132.326.132h14.66l-4.632 4.632c-.088.087-.132.193-.132.316s.044.23.132.316c.04.047.09.08.145.1.056.022.113.032.17.032.06 0 .117-.01.173-.03.055-.02.104-.055.145-.102l5.405-5.396c.088-.088.132-.195.132-.32 0-.127-.044-.234-.132-.322z" fill-opacity=".615" fill="#FFF"/><path d="M25.242 31.28c0 .504.216.72.72.72h6.066c.378 0 .54-.27.54-.9v-.558c0-.63-.162-.9-.54-.9h-4.014V19.94c0-.378-.324-.576-1.08-.576h-.612c-.756 0-1.08.198-1.08.576v11.34zm8.712 0c0 .504.216.72.72.72h6.606c.378 0 .54-.27.54-.9v-.558c0-.63-.162-.9-.54-.9h-4.554v-2.916h4.05c.378 0 .54-.27.54-.9v-.558c0-.63-.162-.9-.54-.9h-4.05v-2.61h4.536c.378 0 .54-.27.54-.9V20.3c0-.63-.162-.9-.54-.9h-6.588c-.504 0-.72.216-.72.72v11.16zm8.586.36c0-.09.036-.198.072-.324l3.96-11.574c.108-.288.504-.378 1.026-.378h.936c.522 0 .918.09 1.026.378l3.96 11.574c.036.126.054.234.054.324 0 .252-.27.396-.9.396h-.792c-.522 0-.918-.09-1.008-.378l-.72-2.196h-4.248l-.72 2.196c-.09.27-.396.378-.828.378h-.72c-.756 0-1.098-.144-1.098-.396zm4.14-4.554h2.7l-1.026-3.204c-.09-.234-.27-1.152-.27-1.152h-.072s-.162.846-.27 1.152l-1.062 3.204zm8.136 4.374V20.12c0-.504.216-.72.72-.72h3.51c3.114 0 4.482 1.224 4.482 3.384 0 1.386-.864 2.394-2.106 2.862v.072c.45.18.99.882 1.296 1.656l1.584 3.96c.054.144.09.252.09.342 0 .216-.342.36-1.08.36h-.738c-.522 0-.936-.09-1.044-.378l-1.422-3.51c-.36-.72-.648-1.08-1.818-1.08h-.702v4.392c0 .378-.324.576-1.08.576h-.612c-.756 0-1.08-.198-1.08-.576zm2.772-6.786h1.71c.738 0 1.386-.684 1.386-1.548 0-.828-.576-1.368-1.512-1.368h-1.584v2.916zm8.208 6.786c0 .378.324.576 1.08.576h.522c.756 0 1.08-.198 1.08-.576v-7.29l4.824 7.38c.27.414.666.486 1.188.486h.684c.756 0 1.08-.198 1.08-.576V19.94c0-.378-.324-.576-1.08-.576h-.522c-.756 0-1.08.198-1.08.576v7.2l-4.734-7.29c-.27-.414-.666-.486-1.188-.486h-.774c-.756 0-1.08.198-1.08.576v11.52zm17.262 0c0 .378.324.576 1.08.576h.522c.756 0 1.08-.198 1.08-.576v-7.452l.072-.018 2.61 4.662c.162.216.378.342.72.342h.522c.342 0 .558-.126.72-.342l2.61-4.662.072.018v7.452c0 .378.324.576 1.08.576h.522c.756 0 1.08-.198 1.08-.576V19.94c0-.378-.324-.576-1.08-.576h-.936c-.522 0-.936.126-1.134.486l-3.204 5.634-3.168-5.634c-.198-.36-.612-.486-1.134-.486h-.954c-.756 0-1.08.198-1.08.576v11.52zM97.8 25.7c0-4.158 2.07-6.444 5.778-6.444 3.708 0 5.76 2.286 5.76 6.444 0 4.158-2.052 6.444-5.76 6.444-3.708 0-5.778-2.286-5.778-6.444zm5.778 4.086c1.926 0 2.916-1.44 2.916-4.086 0-2.646-.99-4.068-2.916-4.068s-2.934 1.422-2.934 4.068 1.008 4.086 2.934 4.086zm7.812 1.674V20.12c0-.504.216-.72.72-.72h3.51c3.114 0 4.482 1.224 4.482 3.384 0 1.386-.864 2.394-2.106 2.862v.072c.45.18.99.882 1.296 1.656l1.584 3.96c.054.144.09.252.09.342 0 .216-.342.36-1.08.36h-.738c-.522 0-.936-.09-1.044-.378l-1.422-3.51c-.36-.72-.648-1.08-1.818-1.08h-.702v4.392c0 .378-.324.576-1.08.576h-.612c-.756 0-1.08-.198-1.08-.576zm2.772-6.786h1.71c.738 0 1.386-.684 1.386-1.548 0-.828-.576-1.368-1.512-1.368h-1.584v2.916zm8.208 6.606c0 .504.216.72.72.72h6.606c.378 0 .54-.27.54-.9v-.558c0-.63-.162-.9-.54-.9h-4.554v-2.916h4.05c.378 0 .54-.27.54-.9v-.558c0-.63-.162-.9-.54-.9h-4.05v-2.61h4.536c.378 0 .54-.27.54-.9V20.3c0-.63-.162-.9-.54-.9h-6.588c-.504 0-.72.216-.72.72v11.16z" fill="#FFF"/></g></svg>