<svg width="208" height="51" viewBox="0 0 208 51" xmlns="http://www.w3.org/2000/svg" xmlns:xlink="http://www.w3.org/1999/xlink"><title>visit-forum-white</title><defs><rect id="a" width="208" height="51" rx="3"/><path id="d" d="M156 3h50v45h-50z"/><filter x="-3%" y="-1.1%" width="104%" height="102.2%" filterUnits="objectBoundingBox" id="c"><feOffset dx="-1" in="SourceAlpha" result="shadowOffsetOuter1"/><feComposite in="shadowOffsetOuter1" in2="SourceAlpha" operator="out" result="shadowOffsetOuter1"/><feColorMatrix values="0 0 0 0 0 0 0 0 0 0 0 0 0 0 0 0 0 0 0.0851732337 0" in="shadowOffsetOuter1"/></filter></defs><g fill="none" fill-rule="evenodd"><mask id="b" fill="#fff"><use xlink:href="#a"/></mask><rect stroke="#D8DFE3" stroke-width="2" x="1" y="1" width="206" height="49" rx="3"/><g mask="url(#b)"><use fill="#000" filter="url(#c)" xlink:href="#d"/><use fill-opacity="0" fill="#027CD2" xlink:href="#d"/></g><path d="M189.42 25.028l-5.405-5.396c-.088-.088-.194-.132-.317-.132s-.228.044-.316.132c-.088.088-.132.193-.132.316s.044.23.132.317l4.632 4.63h-14.66c-.13 0-.238.045-.326.133-.088.088-.132.197-.132.326 0 .123.044.228.132.316.088.088.197.132.326.132h14.66l-4.632 4.632c-.088.087-.132.193-.132.316s.044.23.132.316c.04.047.09.08.145.1.056.022.113.032.17.032.06 0 .117-.01.173-.03.055-.02.104-.055.145-.102l5.405-5.396c.088-.088.132-.195.132-.32 0-.127-.044-.234-.132-.322z" fill-opacity=".357" fill="#000"/><text font-family="Asap-Bold, Asap" font-size="18" font-weight="bold" fill="#65737D"><tspan x="24" y="32">VISIT FORUM</tspan></text></g></svg>