<svg width="208" height="51" viewBox="0 0 208 51" xmlns="http://www.w3.org/2000/svg" xmlns:xlink="http://www.w3.org/1999/xlink"><title>visit-forum-white</title><defs><rect id="a" width="208" height="51" rx="3"/><path id="d" d="M156 3h50v45h-50z"/><filter x="-3%" y="-1.1%" width="104%" height="102.2%" filterUnits="objectBoundingBox" id="c"><feOffset dx="-1" in="SourceAlpha" result="shadowOffsetOuter1"/><feComposite in="shadowOffsetOuter1" in2="SourceAlpha" operator="out" result="shadowOffsetOuter1"/><feColorMatrix values="0 0 0 0 0 0 0 0 0 0 0 0 0 0 0 0 0 0 0.0851732337 0" in="shadowOffsetOuter1"/></filter></defs><g fill="none" fill-rule="evenodd"><mask id="b" fill="#fff"><use xlink:href="#a"/></mask><rect stroke="#D8DFE3" stroke-width="2" x="1" y="1" width="206" height="49" rx="3"/><g mask="url(#b)"><use fill="#000" filter="url(#c)" xlink:href="#d"/><use fill-opacity="0" fill="#027CD2" xlink:href="#d"/></g><path d="M189.42 25.028l-5.405-5.396c-.088-.088-.194-.132-.317-.132s-.228.044-.316.132c-.088.088-.132.193-.132.316s.044.23.132.317l4.632 4.63h-14.66c-.13 0-.238.045-.326.133-.088.088-.132.197-.132.326 0 .123.044.228.132.316.088.088.197.132.326.132h14.66l-4.632 4.632c-.088.087-.132.193-.132.316s.044.23.132.316c.04.047.09.08.145.1.056.022.113.032.17.032.06 0 .117-.01.173-.03.055-.02.104-.055.145-.102l5.405-5.396c.088-.088.132-.195.132-.32 0-.127-.044-.234-.132-.322z" fill-opacity=".357" fill="#000"/><path d="M28.05 31.658c.09.288.486.378 1.008.378h.936c.522 0 .918-.09 1.008-.378l3.888-11.574c.036-.126.054-.234.054-.324 0-.252-.324-.396-1.08-.396h-.558c-.522 0-.936.144-1.062.522l-2.7 8.424h-.072l-2.628-8.424c-.126-.396-.54-.522-1.062-.522h-.594c-.756 0-1.098.144-1.098.396 0 .09.036.198.072.324l3.888 11.574zm8.19-.198c0 .378.324.594 1.08.594h.63c.756 0 1.08-.216 1.08-.594V19.94c0-.378-.324-.594-1.08-.594h-.63c-.756 0-1.08.216-1.08.594v11.52zm4.338-.9c0 .612 1.494 1.584 4.23 1.584 1.962 0 4.068-1.008 4.068-3.996 0-4.23-5.202-3.402-5.202-5.454 0-.414.27-1.062 1.674-1.062 1.206 0 1.764.45 1.998.45.432 0 .99-1.08.99-1.566 0-.594-1.332-1.26-3.24-1.26-2.106 0-4.266 1.044-4.266 3.69 0 4.23 5.202 3.402 5.202 5.526 0 1.08-.918 1.314-1.692 1.314-1.44 0-2.322-.828-2.646-.828-.378 0-1.116 1.044-1.116 1.602zm9.738.9c0 .378.324.594 1.08.594h.63c.756 0 1.08-.216 1.08-.594V19.94c0-.378-.324-.594-1.08-.594h-.63c-.756 0-1.08.216-1.08.594v11.52zm7.488 0c0 .378.324.576 1.08.576h.63c.756 0 1.08-.198 1.08-.576v-9.702h2.862c.378 0 .54-.27.54-.9V20.3c0-.63-.162-.9-.54-.9h-8.514c-.378 0-.54.27-.54.9v.558c0 .63.162.9.54.9h2.862v9.702zm11.898 0c0 .378.324.576 1.08.576h.612c.756 0 1.08-.198 1.08-.576v-4.716h3.834c.378 0 .54-.27.54-.9v-.558c0-.63-.162-.9-.54-.9h-3.834v-2.628h3.96c.378 0 .54-.27.54-.9V20.3c0-.63-.162-.9-.54-.9h-6.012c-.504 0-.72.216-.72.72v11.34zm8.622-5.76c0-4.158 2.07-6.444 5.778-6.444 3.708 0 5.76 2.286 5.76 6.444 0 4.158-2.052 6.444-5.76 6.444-3.708 0-5.778-2.286-5.778-6.444zm5.778 4.086c1.926 0 2.916-1.44 2.916-4.086 0-2.646-.99-4.068-2.916-4.068s-2.934 1.422-2.934 4.068 1.008 4.086 2.934 4.086zm7.812 1.674V20.12c0-.504.216-.72.72-.72h3.51c3.114 0 4.482 1.224 4.482 3.384 0 1.386-.864 2.394-2.106 2.862v.072c.45.18.99.882 1.296 1.656l1.584 3.96c.054.144.09.252.09.342 0 .216-.342.36-1.08.36h-.738c-.522 0-.936-.09-1.044-.378l-1.422-3.51c-.36-.72-.648-1.08-1.818-1.08h-.702v4.392c0 .378-.324.576-1.08.576h-.612c-.756 0-1.08-.198-1.08-.576zm2.772-6.786h1.71c.738 0 1.386-.684 1.386-1.548 0-.828-.576-1.368-1.512-1.368h-1.584v2.916zm8.154 3.114c0 2.772 1.926 4.356 5.22 4.356 3.294 0 5.22-1.584 5.22-4.356V19.94c0-.378-.324-.576-1.08-.576h-.594c-.756 0-1.08.198-1.08.576v7.668c0 1.26-1.008 2.178-2.466 2.178-1.458 0-2.448-.918-2.448-2.178V19.94c0-.378-.324-.576-1.08-.576h-.612c-.756 0-1.08.198-1.08.576v7.848zm12.87 3.672c0 .378.324.576 1.08.576h.522c.756 0 1.08-.198 1.08-.576v-7.452l.072-.018 2.61 4.662c.162.216.378.342.72.342h.522c.342 0 .558-.126.72-.342l2.61-4.662.072.018v7.452c0 .378.324.576 1.08.576h.522c.756 0 1.08-.198 1.08-.576V19.94c0-.378-.324-.576-1.08-.576h-.936c-.522 0-.936.126-1.134.486l-3.204 5.634-3.168-5.634c-.198-.36-.612-.486-1.134-.486h-.954c-.756 0-1.08.198-1.08.576v11.52z" fill="#65737D"/></g></svg>